<svg width="275" height="35" viewBox="0 0 275 35" fill="none" xmlns="http://www.w3.org/2000/svg">
<rect width="275" height="35" rx="17.5" fill="#00D1FF"/>
<rect width="275" height="35" rx="17.5" fill="url(#paint0_linear)"/>
<rect x="0.5" y="0.5" width="274" height="34" rx="17" stroke="#2273EB" stroke-opacity="0.5"/>
<path d="M74.44 13.98C74.44 14.26 74.5 14.5 74.62 14.7C74.7533 14.9 74.9333 15.0733 75.16 15.22C75.3867 15.3667 75.6533 15.5067 75.96 15.64C76.28 15.76 76.6333 15.8867 77.02 16.02C77.5 16.1933 77.9733 16.3933 78.44 16.62C78.92 16.8333 79.3467 17.1067 79.72 17.44C80.1067 17.76 80.42 18.16 80.66 18.64C80.9 19.12 81.02 19.7 81.02 20.38C81.02 21.1 80.8867 21.7067 80.62 22.2C80.3667 22.6933 80.02 23.0933 79.58 23.4C79.14 23.6933 78.6333 23.9067 78.06 24.04C77.4867 24.1733 76.8933 24.24 76.28 24.24C75.4 24.24 74.5733 24.1333 73.8 23.92C73.04 23.7067 72.3867 23.4467 71.84 23.14L72.44 20.98C72.9467 21.3667 73.5067 21.6867 74.12 21.94C74.7467 22.1933 75.46 22.32 76.26 22.32C77.1133 22.32 77.7333 22.1733 78.12 21.88C78.5067 21.5733 78.7 21.1667 78.7 20.66C78.7 20.2733 78.6067 19.9467 78.42 19.68C78.2333 19.4 78 19.1667 77.72 18.98C77.44 18.78 77.14 18.62 76.82 18.5C76.5133 18.38 76.24 18.28 76 18.2C75.5733 18.0667 75.14 17.9067 74.7 17.72C74.26 17.5333 73.8533 17.2933 73.48 17C73.1067 16.6933 72.8 16.3133 72.56 15.86C72.3333 15.4067 72.22 14.84 72.22 14.16C72.22 13.52 72.3267 12.98 72.54 12.54C72.7667 12.1 73.0667 11.7467 73.44 11.48C73.8267 11.2 74.2733 11 74.78 10.88C75.3 10.76 75.86 10.7 76.46 10.7C77.1933 10.7 77.9 10.7733 78.58 10.92C79.2733 11.0667 79.8533 11.2467 80.32 11.46L79.78 13.58C79.54 13.42 79.28 13.28 79 13.16C78.72 13.04 78.4267 12.94 78.12 12.86C77.8267 12.78 77.5267 12.72 77.22 12.68C76.9267 12.6267 76.6467 12.6 76.38 12.6C75.78 12.6 75.3067 12.7133 74.96 12.94C74.6133 13.1667 74.44 13.5133 74.44 13.98ZM87.3998 14.5C88.5732 14.5 89.4798 14.8 90.1198 15.4C90.7598 15.9867 91.0798 16.82 91.0798 17.9C91.0798 18.0467 91.0665 18.2067 91.0398 18.38C91.0265 18.54 90.9998 18.7 90.9598 18.86C90.9332 19.02 90.8932 19.1667 90.8398 19.3C90.7998 19.42 90.7532 19.52 90.6998 19.6H84.8798C84.9065 20 84.9798 20.38 85.0998 20.74C85.2198 21.0867 85.3932 21.3933 85.6198 21.66C85.8465 21.9133 86.1198 22.12 86.4398 22.28C86.7732 22.4267 87.1598 22.5 87.5998 22.5C88.0932 22.5 88.6132 22.4067 89.1598 22.22C89.7198 22.0333 90.1932 21.8 90.5798 21.52L90.9398 23.16C90.7665 23.2667 90.5532 23.3867 90.2998 23.52C90.0465 23.64 89.7598 23.7533 89.4398 23.86C89.1198 23.9667 88.7732 24.0533 88.3998 24.12C88.0398 24.2 87.6598 24.24 87.2598 24.24C86.5132 24.24 85.8532 24.1133 85.2798 23.86C84.7065 23.5933 84.2265 23.24 83.8398 22.8C83.4532 22.3467 83.1598 21.8267 82.9598 21.24C82.7598 20.6533 82.6598 20.04 82.6598 19.4C82.6598 18.7467 82.7598 18.1267 82.9598 17.54C83.1732 16.94 83.4798 16.4133 83.8798 15.96C84.2798 15.5067 84.7732 15.1533 85.3598 14.9C85.9598 14.6333 86.6398 14.5 87.3998 14.5ZM87.3398 16.22C86.7798 16.22 86.2998 16.3867 85.8998 16.72C85.5132 17.04 85.2332 17.48 85.0598 18.04H88.8798C88.8932 18 88.8998 17.9533 88.8998 17.9C88.9132 17.8467 88.9198 17.78 88.9198 17.7C88.9198 17.2733 88.7732 16.92 88.4798 16.64C88.1865 16.36 87.8065 16.22 87.3398 16.22ZM99.4775 24V17.92C99.4775 16.8267 99.0108 16.28 98.0775 16.28C97.8508 16.28 97.6042 16.32 97.3375 16.4C97.0842 16.48 96.8375 16.6 96.5975 16.76C96.3575 16.9067 96.1375 17.0933 95.9375 17.32C95.7508 17.5467 95.6108 17.8067 95.5175 18.1V24H93.3175V14.8H95.0375L95.1375 16.16H95.2175C95.4975 15.6 95.9308 15.1867 96.5175 14.92C97.1175 14.64 97.7575 14.5 98.4375 14.5C98.8775 14.5 99.2908 14.56 99.6775 14.68C100.064 14.7867 100.404 14.9667 100.698 15.22C101.004 15.4733 101.244 15.8067 101.418 16.22C101.591 16.6333 101.678 17.14 101.678 17.74V24H99.4775ZM107.915 24.24C107.288 24.24 106.715 24.1133 106.195 23.86C105.675 23.6067 105.228 23.26 104.855 22.82C104.495 22.38 104.215 21.86 104.015 21.26C103.815 20.66 103.715 20.0067 103.715 19.3C103.715 18.6733 103.795 18.0733 103.955 17.5C104.128 16.9133 104.388 16.4 104.735 15.96C105.082 15.52 105.508 15.1667 106.015 14.9C106.535 14.6333 107.148 14.5 107.855 14.5C108.495 14.5 109.068 14.6067 109.575 14.82C110.082 15.0333 110.488 15.3333 110.795 15.72V9.2H112.975V24H111.215L111.055 22.74H110.975C110.602 23.1533 110.175 23.5067 109.695 23.8C109.228 24.0933 108.635 24.24 107.915 24.24ZM108.195 22.58C108.408 22.58 108.635 22.5533 108.875 22.5C109.115 22.4333 109.348 22.3467 109.575 22.24C109.815 22.1333 110.042 22.0067 110.255 21.86C110.468 21.7 110.648 21.52 110.795 21.32V17.48C110.395 16.9867 109.988 16.6533 109.575 16.48C109.162 16.2933 108.762 16.2 108.375 16.2C107.948 16.2 107.582 16.2867 107.275 16.46C106.968 16.62 106.708 16.8467 106.495 17.14C106.295 17.4333 106.142 17.7733 106.035 18.16C105.942 18.5333 105.895 18.9267 105.895 19.34C105.895 19.74 105.942 20.14 106.035 20.54C106.128 20.9267 106.268 21.2733 106.455 21.58C106.642 21.8733 106.882 22.1133 107.175 22.3C107.468 22.4867 107.808 22.58 108.195 22.58ZM128.142 20.88L132.522 10.8H135.142V24H132.862V15.3L129.062 24H127.222L123.322 15.3V24H121.022V10.8H123.642L128.142 20.88ZM142.224 14.5C143.397 14.5 144.304 14.8 144.944 15.4C145.584 15.9867 145.904 16.82 145.904 17.9C145.904 18.0467 145.891 18.2067 145.864 18.38C145.851 18.54 145.824 18.7 145.784 18.86C145.757 19.02 145.717 19.1667 145.664 19.3C145.624 19.42 145.577 19.52 145.524 19.6H139.704C139.731 20 139.804 20.38 139.924 20.74C140.044 21.0867 140.217 21.3933 140.444 21.66C140.671 21.9133 140.944 22.12 141.264 22.28C141.597 22.4267 141.984 22.5 142.424 22.5C142.917 22.5 143.437 22.4067 143.984 22.22C144.544 22.0333 145.017 21.8 145.404 21.52L145.764 23.16C145.591 23.2667 145.377 23.3867 145.124 23.52C144.871 23.64 144.584 23.7533 144.264 23.86C143.944 23.9667 143.597 24.0533 143.224 24.12C142.864 24.2 142.484 24.24 142.084 24.24C141.337 24.24 140.677 24.1133 140.104 23.86C139.531 23.5933 139.051 23.24 138.664 22.8C138.277 22.3467 137.984 21.8267 137.784 21.24C137.584 20.6533 137.484 20.04 137.484 19.4C137.484 18.7467 137.584 18.1267 137.784 17.54C137.997 16.94 138.304 16.4133 138.704 15.96C139.104 15.5067 139.597 15.1533 140.184 14.9C140.784 14.6333 141.464 14.5 142.224 14.5ZM142.164 16.22C141.604 16.22 141.124 16.3867 140.724 16.72C140.337 17.04 140.057 17.48 139.884 18.04H143.704C143.717 18 143.724 17.9533 143.724 17.9C143.737 17.8467 143.744 17.78 143.744 17.7C143.744 17.2733 143.597 16.92 143.304 16.64C143.011 16.36 142.631 16.22 142.164 16.22ZM150.942 16.14C150.502 16.14 150.155 16.2267 149.902 16.4C149.662 16.56 149.542 16.7933 149.542 17.1C149.542 17.3 149.608 17.4867 149.742 17.66C149.888 17.82 150.188 17.9533 150.642 18.06L152.062 18.38C152.622 18.5 153.068 18.6733 153.402 18.9C153.748 19.1267 154.015 19.3733 154.202 19.64C154.402 19.9067 154.535 20.18 154.602 20.46C154.668 20.74 154.702 21 154.702 21.24C154.702 21.6667 154.615 22.0667 154.442 22.44C154.268 22.8 154.022 23.1133 153.702 23.38C153.382 23.6467 152.995 23.8533 152.542 24C152.088 24.16 151.582 24.24 151.022 24.24C150.315 24.24 149.662 24.14 149.062 23.94C148.462 23.7267 147.982 23.4933 147.622 23.24L148.142 21.34C148.595 21.78 149.102 22.1067 149.662 22.32C150.235 22.5333 150.762 22.64 151.242 22.64C151.748 22.64 152.135 22.5333 152.402 22.32C152.668 22.0933 152.802 21.7867 152.802 21.4C152.802 21.1733 152.735 20.9867 152.602 20.84C152.468 20.68 152.202 20.5467 151.802 20.44L149.882 19.96C149.428 19.8533 149.055 19.7 148.762 19.5C148.482 19.3 148.255 19.08 148.082 18.84C147.922 18.5867 147.808 18.3267 147.742 18.06C147.688 17.7933 147.662 17.54 147.662 17.3C147.662 16.4067 147.975 15.72 148.602 15.24C149.228 14.7467 150.042 14.5 151.042 14.5C151.562 14.5 152.122 14.5733 152.722 14.72C153.322 14.8533 153.828 15.0533 154.242 15.32L153.662 17.12C153.395 16.9067 153.022 16.6933 152.542 16.48C152.062 16.2533 151.528 16.14 150.942 16.14ZM159.594 16.14C159.154 16.14 158.807 16.2267 158.554 16.4C158.314 16.56 158.194 16.7933 158.194 17.1C158.194 17.3 158.261 17.4867 158.394 17.66C158.541 17.82 158.841 17.9533 159.294 18.06L160.714 18.38C161.274 18.5 161.721 18.6733 162.054 18.9C162.401 19.1267 162.667 19.3733 162.854 19.64C163.054 19.9067 163.187 20.18 163.254 20.46C163.321 20.74 163.354 21 163.354 21.24C163.354 21.6667 163.267 22.0667 163.094 22.44C162.921 22.8 162.674 23.1133 162.354 23.38C162.034 23.6467 161.647 23.8533 161.194 24C160.741 24.16 160.234 24.24 159.674 24.24C158.967 24.24 158.314 24.14 157.714 23.94C157.114 23.7267 156.634 23.4933 156.274 23.24L156.794 21.34C157.247 21.78 157.754 22.1067 158.314 22.32C158.887 22.5333 159.414 22.64 159.894 22.64C160.401 22.64 160.787 22.5333 161.054 22.32C161.321 22.0933 161.454 21.7867 161.454 21.4C161.454 21.1733 161.387 20.9867 161.254 20.84C161.121 20.68 160.854 20.5467 160.454 20.44L158.534 19.96C158.081 19.8533 157.707 19.7 157.414 19.5C157.134 19.3 156.907 19.08 156.734 18.84C156.574 18.5867 156.461 18.3267 156.394 18.06C156.341 17.7933 156.314 17.54 156.314 17.3C156.314 16.4067 156.627 15.72 157.254 15.24C157.881 14.7467 158.694 14.5 159.694 14.5C160.214 14.5 160.774 14.5733 161.374 14.72C161.974 14.8533 162.481 15.0533 162.894 15.32L162.314 17.12C162.047 16.9067 161.674 16.6933 161.194 16.48C160.714 16.2533 160.181 16.14 159.594 16.14ZM171.046 24L170.886 22.74H170.806C170.446 23.1933 169.953 23.56 169.326 23.84C168.713 24.1067 168.086 24.24 167.446 24.24C166.606 24.24 165.946 24 165.466 23.52C164.986 23.0267 164.746 22.38 164.746 21.58C164.746 21.0333 164.86 20.5467 165.086 20.12C165.326 19.68 165.666 19.3133 166.106 19.02C166.546 18.7133 167.073 18.48 167.686 18.32C168.3 18.16 168.986 18.08 169.746 18.08H170.606V17.78C170.606 17.26 170.44 16.88 170.106 16.64C169.76 16.4 169.22 16.28 168.486 16.28C167.5 16.28 166.62 16.5 165.846 16.94L165.426 15.28C166.32 14.76 167.4 14.5 168.666 14.5C170 14.5 171.013 14.7733 171.706 15.32C172.026 15.5733 172.286 15.9 172.486 16.3C172.7 16.7 172.806 17.18 172.806 17.74V24H171.046ZM168.306 22.46C168.733 22.46 169.16 22.36 169.586 22.16C170.013 21.9467 170.353 21.6667 170.606 21.32V19.5H170.226C169.133 19.5 168.333 19.64 167.826 19.92C167.333 20.2 167.086 20.6467 167.086 21.26C167.086 22.06 167.493 22.46 168.306 22.46ZM176.686 21.1C176.086 20.8467 175.653 20.4533 175.386 19.92C175.119 19.3867 174.986 18.8067 174.986 18.18C174.986 17.66 175.073 17.1733 175.246 16.72C175.419 16.2667 175.666 15.88 175.986 15.56C176.319 15.2267 176.713 14.9667 177.166 14.78C177.633 14.5933 178.159 14.5 178.746 14.5C179.093 14.5 179.433 14.5333 179.766 14.6C180.113 14.6667 180.413 14.7667 180.666 14.9C181.226 14.8867 181.733 14.8467 182.186 14.78C182.653 14.7 183.099 14.6 183.526 14.48L183.706 14.62L183.486 16.14L183.386 16.24L181.966 16.08L181.946 16.14C182.399 16.7133 182.626 17.3867 182.626 18.16C182.626 18.6267 182.539 19.0667 182.366 19.48C182.206 19.88 181.966 20.2333 181.646 20.54C181.326 20.8333 180.926 21.0733 180.446 21.26C179.979 21.4333 179.446 21.52 178.846 21.52C178.699 21.52 178.579 21.52 178.486 21.52C178.406 21.5067 178.326 21.5 178.246 21.5C178.019 21.58 177.846 21.6867 177.726 21.82C177.606 21.94 177.546 22.0667 177.546 22.2C177.546 22.3467 177.619 22.4733 177.766 22.58C177.913 22.6867 178.139 22.76 178.446 22.8L180.386 23.04C180.826 23.0933 181.233 23.1867 181.606 23.32C181.993 23.4533 182.326 23.6333 182.606 23.86C182.899 24.0867 183.126 24.36 183.286 24.68C183.446 25 183.526 25.3667 183.526 25.78C183.526 26.1933 183.439 26.5933 183.266 26.98C183.093 27.3667 182.819 27.7067 182.446 28C182.073 28.2933 181.599 28.5267 181.026 28.7C180.466 28.8733 179.786 28.96 178.986 28.96C178.279 28.96 177.653 28.8867 177.106 28.74C176.573 28.6067 176.119 28.42 175.746 28.18C175.373 27.94 175.086 27.6533 174.886 27.32C174.699 27 174.606 26.6533 174.606 26.28C174.606 26.0133 174.653 25.7467 174.746 25.48C174.839 25.2267 174.966 24.9867 175.126 24.76C175.299 24.5467 175.493 24.3533 175.706 24.18C175.933 24.0067 176.173 23.88 176.426 23.8V23.72C176.119 23.5867 175.906 23.4067 175.786 23.18C175.666 22.9533 175.606 22.7333 175.606 22.52C175.606 22.24 175.699 21.98 175.886 21.74C176.073 21.5 176.339 21.3133 176.686 21.18V21.1ZM178.826 19.98C179.373 19.98 179.786 19.8067 180.066 19.46C180.346 19.1 180.486 18.6667 180.486 18.16C180.486 17.92 180.453 17.68 180.386 17.44C180.319 17.1867 180.213 16.96 180.066 16.76C179.919 16.56 179.733 16.4 179.506 16.28C179.293 16.1467 179.039 16.08 178.746 16.08C178.466 16.08 178.219 16.14 178.006 16.26C177.793 16.3667 177.613 16.5133 177.466 16.7C177.333 16.8867 177.233 17.1 177.166 17.34C177.099 17.5667 177.066 17.8 177.066 18.04C177.066 18.28 177.099 18.52 177.166 18.76C177.246 18.9867 177.359 19.1933 177.506 19.38C177.653 19.5533 177.833 19.7 178.046 19.82C178.273 19.9267 178.533 19.98 178.826 19.98ZM178.206 24.44C177.753 24.52 177.366 24.7067 177.046 25C176.726 25.3067 176.566 25.6533 176.566 26.04C176.566 26.4667 176.773 26.7867 177.186 27C177.613 27.2133 178.226 27.32 179.026 27.32C179.813 27.32 180.439 27.2067 180.906 26.98C181.373 26.7667 181.606 26.4133 181.606 25.92C181.606 25.44 181.346 25.1 180.826 24.9C180.306 24.7 179.433 24.5467 178.206 24.44ZM189.529 14.5C190.702 14.5 191.609 14.8 192.249 15.4C192.889 15.9867 193.209 16.82 193.209 17.9C193.209 18.0467 193.195 18.2067 193.169 18.38C193.155 18.54 193.129 18.7 193.089 18.86C193.062 19.02 193.022 19.1667 192.969 19.3C192.929 19.42 192.882 19.52 192.829 19.6H187.009C187.035 20 187.109 20.38 187.229 20.74C187.349 21.0867 187.522 21.3933 187.749 21.66C187.975 21.9133 188.249 22.12 188.569 22.28C188.902 22.4267 189.289 22.5 189.729 22.5C190.222 22.5 190.742 22.4067 191.289 22.22C191.849 22.0333 192.322 21.8 192.709 21.52L193.069 23.16C192.895 23.2667 192.682 23.3867 192.429 23.52C192.175 23.64 191.889 23.7533 191.569 23.86C191.249 23.9667 190.902 24.0533 190.529 24.12C190.169 24.2 189.789 24.24 189.389 24.24C188.642 24.24 187.982 24.1133 187.409 23.86C186.835 23.5933 186.355 23.24 185.969 22.8C185.582 22.3467 185.289 21.8267 185.089 21.24C184.889 20.6533 184.789 20.04 184.789 19.4C184.789 18.7467 184.889 18.1267 185.089 17.54C185.302 16.94 185.609 16.4133 186.009 15.96C186.409 15.5067 186.902 15.1533 187.489 14.9C188.089 14.6333 188.769 14.5 189.529 14.5ZM189.469 16.22C188.909 16.22 188.429 16.3867 188.029 16.72C187.642 17.04 187.362 17.48 187.189 18.04H191.009C191.022 18 191.029 17.9533 191.029 17.9C191.042 17.8467 191.049 17.78 191.049 17.7C191.049 17.2733 190.902 16.92 190.609 16.64C190.315 16.36 189.935 16.22 189.469 16.22Z" fill="white"/>
<defs>
<linearGradient id="paint0_linear" x1="-40.8203" y1="23.782" x2="379.686" y2="15.4251" gradientUnits="userSpaceOnUse">
<stop stop-color="#2273EB"/>
<stop offset="1" stop-color="white" stop-opacity="0"/>
</linearGradient>
</defs>
</svg>
