<svg width="202" height="46" viewBox="0 0 202 46" fill="none" xmlns="http://www.w3.org/2000/svg">
<rect y="0.618958" width="202" height="45.0444" rx="20" fill="#00D1FF"/>
<rect y="0.618958" width="202" height="45.0444" rx="20" fill="url(#paint0_linear)"/>
<path d="M54.887 26.1338L58.391 18.0698H60.487V28.6298H58.663V21.6698L55.623 28.6298H54.151L51.031 21.6698V28.6298H49.191V18.0698H51.287L54.887 26.1338ZM66.4089 21.0298C67.0595 21.0298 67.6195 21.1418 68.0889 21.3658C68.5582 21.5792 68.9422 21.8725 69.2409 22.2458C69.5502 22.6085 69.7742 23.0298 69.9129 23.5098C70.0622 23.9792 70.1369 24.4752 70.1369 24.9978C70.1369 25.5205 70.0622 26.0165 69.9129 26.4858C69.7742 26.9445 69.5502 27.3498 69.2409 27.7018C68.9422 28.0432 68.5582 28.3152 68.0889 28.5178C67.6302 28.7205 67.0862 28.8218 66.4569 28.8218C65.8062 28.8218 65.2462 28.7152 64.7769 28.5018C64.3075 28.2885 63.9182 28.0058 63.6089 27.6538C63.2995 27.2912 63.0702 26.8752 62.9209 26.4058C62.7715 25.9365 62.6969 25.4405 62.6969 24.9178C62.6969 24.3952 62.7715 23.8992 62.9209 23.4298C63.0702 22.9605 63.2942 22.5498 63.5929 22.1978C63.9022 21.8352 64.2915 21.5525 64.7609 21.3498C65.2302 21.1365 65.7795 21.0298 66.4089 21.0298ZM66.4409 27.4938C66.7502 27.4938 67.0169 27.4298 67.2409 27.3018C67.4755 27.1632 67.6675 26.9818 67.8169 26.7578C67.9662 26.5232 68.0729 26.2565 68.1369 25.9578C68.2115 25.6592 68.2489 25.3445 68.2489 25.0138C68.2489 24.6725 68.2115 24.3472 68.1369 24.0378C68.0622 23.7178 67.9449 23.4405 67.7849 23.2058C67.6355 22.9605 67.4435 22.7685 67.2089 22.6298C66.9742 22.4805 66.6915 22.4058 66.3609 22.4058C66.0515 22.4058 65.7849 22.4752 65.5609 22.6138C65.3369 22.7418 65.1502 22.9178 65.0009 23.1418C64.8622 23.3658 64.7555 23.6272 64.6809 23.9258C64.6169 24.2245 64.5849 24.5392 64.5849 24.8698C64.5849 25.2112 64.6169 25.5418 64.6809 25.8618C64.7555 26.1712 64.8675 26.4485 65.0169 26.6938C65.1769 26.9392 65.3742 27.1365 65.6089 27.2858C65.8435 27.4245 66.1209 27.4938 66.4409 27.4938ZM76.4381 22.8698C76.3314 22.7845 76.1661 22.7152 75.9421 22.6618C75.7181 22.6085 75.5261 22.5818 75.3661 22.5818C75.1528 22.5818 74.9768 22.6352 74.8381 22.7418C74.6994 22.8378 74.5768 22.9712 74.4701 23.1418C74.3634 23.3018 74.2728 23.4885 74.1981 23.7018C74.1234 23.9152 74.0541 24.1338 73.9901 24.3578V28.6298H72.2301V21.2698H73.6061L73.6861 22.8058H73.7501C73.8568 22.5818 73.9688 22.3632 74.0861 22.1498C74.2034 21.9365 74.3368 21.7498 74.4861 21.5898C74.6354 21.4192 74.8061 21.2858 74.9981 21.1898C75.2008 21.0832 75.4354 21.0298 75.7021 21.0298C76.1288 21.0298 76.5288 21.1685 76.9021 21.4458L76.4381 22.8698ZM81.7379 21.0298C82.6765 21.0298 83.4019 21.2698 83.9139 21.7498C84.4259 22.2192 84.6819 22.8858 84.6819 23.7498C84.6819 23.8672 84.6712 23.9952 84.6499 24.1338C84.6392 24.2618 84.6179 24.3898 84.5859 24.5178C84.5645 24.6458 84.5325 24.7632 84.4899 24.8698C84.4579 24.9658 84.4205 25.0458 84.3779 25.1098H79.7219C79.7432 25.4298 79.8019 25.7338 79.8979 26.0218C79.9939 26.2992 80.1325 26.5445 80.3139 26.7578C80.4952 26.9605 80.7139 27.1258 80.9699 27.2538C81.2365 27.3712 81.5459 27.4298 81.8979 27.4298C82.2925 27.4298 82.7085 27.3552 83.1459 27.2058C83.5939 27.0565 83.9725 26.8698 84.2819 26.6458L84.5699 27.9578C84.4312 28.0432 84.2605 28.1392 84.0579 28.2458C83.8552 28.3418 83.6259 28.4325 83.3699 28.5178C83.1139 28.6032 82.8365 28.6725 82.5379 28.7258C82.2499 28.7898 81.9459 28.8218 81.6259 28.8218C81.0285 28.8218 80.5005 28.7205 80.0419 28.5178C79.5832 28.3045 79.1992 28.0218 78.8899 27.6698C78.5805 27.3072 78.3459 26.8912 78.1859 26.4218C78.0259 25.9525 77.9459 25.4618 77.9459 24.9498C77.9459 24.4272 78.0259 23.9312 78.1859 23.4618C78.3565 22.9818 78.6019 22.5605 78.9219 22.1978C79.2419 21.8352 79.6365 21.5525 80.1059 21.3498C80.5859 21.1365 81.1299 21.0298 81.7379 21.0298ZM81.6899 22.4058C81.2419 22.4058 80.8579 22.5392 80.5379 22.8058C80.2285 23.0618 80.0045 23.4138 79.8659 23.8618H82.9219C82.9325 23.8298 82.9379 23.7925 82.9379 23.7498C82.9485 23.7072 82.9539 23.6538 82.9539 23.5898C82.9539 23.2485 82.8365 22.9658 82.6019 22.7418C82.3672 22.5178 82.0632 22.4058 81.6899 22.4058ZM91.3379 18.0698C91.4765 18.0592 91.6952 18.0485 91.9939 18.0378C92.2925 18.0272 92.6072 18.0218 92.9379 18.0218C93.2685 18.0112 93.5832 18.0058 93.8819 18.0058C94.1912 17.9952 94.4312 17.9898 94.6019 17.9898C95.6365 17.9898 96.4845 18.0965 97.1459 18.3098C97.8179 18.5232 98.3725 18.8165 98.8099 19.1898C99.3752 19.6805 99.7859 20.3045 100.042 21.0618C100.298 21.8192 100.426 22.6565 100.426 23.5738C100.426 24.2672 100.335 24.9338 100.154 25.5738C99.9832 26.2032 99.6685 26.7578 99.2099 27.2378C98.7619 27.7178 98.1379 28.1018 97.3379 28.3898C96.5485 28.6672 95.5352 28.8058 94.2979 28.8058C93.8499 28.8058 93.3699 28.7898 92.8579 28.7578C92.3459 28.7258 91.8392 28.6832 91.3379 28.6298V18.0698ZM94.7459 27.2858C96.0365 27.2858 96.9752 26.9765 97.5619 26.3578C98.1592 25.7392 98.4579 24.7312 98.4579 23.3338C98.4579 22.7045 98.3939 22.1552 98.2659 21.6858C98.1485 21.2058 97.9405 20.8058 97.6419 20.4858C97.3432 20.1658 96.9432 19.9258 96.4419 19.7658C95.9405 19.6058 95.3165 19.5258 94.5699 19.5258C94.4205 19.5258 94.2179 19.5258 93.9619 19.5258C93.7165 19.5258 93.4552 19.5312 93.1779 19.5418V27.2218C93.4765 27.2432 93.7645 27.2592 94.0419 27.2698C94.3192 27.2805 94.5539 27.2858 94.7459 27.2858ZM105.932 21.0298C106.871 21.0298 107.596 21.2698 108.108 21.7498C108.62 22.2192 108.876 22.8858 108.876 23.7498C108.876 23.8672 108.866 23.9952 108.844 24.1338C108.834 24.2618 108.812 24.3898 108.78 24.5178C108.759 24.6458 108.727 24.7632 108.684 24.8698C108.652 24.9658 108.615 25.0458 108.572 25.1098H103.916C103.938 25.4298 103.996 25.7338 104.092 26.0218C104.188 26.2992 104.327 26.5445 104.508 26.7578C104.69 26.9605 104.908 27.1258 105.164 27.2538C105.431 27.3712 105.74 27.4298 106.092 27.4298C106.487 27.4298 106.903 27.3552 107.34 27.2058C107.788 27.0565 108.167 26.8698 108.476 26.6458L108.764 27.9578C108.626 28.0432 108.455 28.1392 108.252 28.2458C108.05 28.3418 107.82 28.4325 107.564 28.5178C107.308 28.6032 107.031 28.6725 106.732 28.7258C106.444 28.7898 106.14 28.8218 105.82 28.8218C105.223 28.8218 104.695 28.7205 104.236 28.5178C103.778 28.3045 103.394 28.0218 103.084 27.6698C102.775 27.3072 102.54 26.8912 102.38 26.4218C102.22 25.9525 102.14 25.4618 102.14 24.9498C102.14 24.4272 102.22 23.9312 102.38 23.4618C102.551 22.9818 102.796 22.5605 103.116 22.1978C103.436 21.8352 103.831 21.5525 104.3 21.3498C104.78 21.1365 105.324 21.0298 105.932 21.0298ZM105.884 22.4058C105.436 22.4058 105.052 22.5392 104.732 22.8058C104.423 23.0618 104.199 23.4138 104.06 23.8618H107.116C107.127 23.8298 107.132 23.7925 107.132 23.7498C107.143 23.7072 107.148 23.6538 107.148 23.5898C107.148 23.2485 107.031 22.9658 106.796 22.7418C106.562 22.5178 106.258 22.4058 105.884 22.4058ZM111.322 22.3418H110.41V21.3818L111.45 21.2218L111.738 19.0458H113.082V21.2698H114.49V22.3418H113.082V26.5658C113.082 26.8858 113.114 27.1045 113.178 27.2218C113.242 27.3285 113.365 27.3818 113.546 27.3818C113.685 27.3818 113.824 27.3552 113.962 27.3018C114.101 27.2485 114.304 27.1472 114.57 26.9978L114.858 28.2618C114.656 28.4325 114.368 28.5658 113.994 28.6618C113.632 28.7685 113.269 28.8218 112.906 28.8218C112.586 28.8218 112.32 28.7792 112.106 28.6938C111.904 28.6085 111.744 28.4858 111.626 28.3258C111.509 28.1552 111.429 27.9525 111.386 27.7178C111.344 27.4832 111.322 27.2218 111.322 26.9338V22.3418ZM121.099 28.6298L120.971 27.6218H120.907C120.619 27.9845 120.224 28.2778 119.723 28.5018C119.232 28.7152 118.731 28.8218 118.219 28.8218C117.547 28.8218 117.019 28.6298 116.635 28.2458C116.251 27.8512 116.059 27.3338 116.059 26.6938C116.059 26.2565 116.15 25.8672 116.331 25.5258C116.523 25.1738 116.795 24.8805 117.147 24.6458C117.499 24.4005 117.92 24.2138 118.411 24.0858C118.902 23.9578 119.451 23.8938 120.059 23.8938H120.747V23.6538C120.747 23.2378 120.614 22.9338 120.347 22.7418C120.07 22.5498 119.638 22.4538 119.051 22.4538C118.262 22.4538 117.558 22.6298 116.939 22.9818L116.603 21.6538C117.318 21.2378 118.182 21.0298 119.195 21.0298C120.262 21.0298 121.072 21.2485 121.627 21.6858C121.883 21.8885 122.091 22.1498 122.251 22.4698C122.422 22.7898 122.507 23.1738 122.507 23.6218V28.6298H121.099ZM118.907 27.3978C119.248 27.3978 119.59 27.3178 119.931 27.1578C120.272 26.9872 120.544 26.7632 120.747 26.4858V25.0298H120.443C119.568 25.0298 118.928 25.1418 118.523 25.3658C118.128 25.5898 117.931 25.9472 117.931 26.4378C117.931 27.0778 118.256 27.3978 118.907 27.3978ZM126.714 28.6298H124.954V21.2698H126.714V28.6298ZM124.698 18.9018C124.698 18.7525 124.725 18.6085 124.778 18.4698C124.842 18.3312 124.928 18.2085 125.034 18.1018C125.141 17.9845 125.258 17.8938 125.386 17.8298C125.525 17.7658 125.674 17.7338 125.834 17.7338C125.984 17.7338 126.128 17.7658 126.266 17.8298C126.405 17.8938 126.528 17.9845 126.634 18.1018C126.752 18.2085 126.842 18.3312 126.906 18.4698C126.97 18.6085 127.002 18.7525 127.002 18.9018C127.002 19.0618 126.97 19.2112 126.906 19.3498C126.842 19.4778 126.752 19.5952 126.634 19.7018C126.528 19.8085 126.405 19.8938 126.266 19.9578C126.128 20.0112 125.984 20.0378 125.834 20.0378C125.525 20.0378 125.258 19.9258 125.034 19.7018C124.81 19.4778 124.698 19.2112 124.698 18.9018ZM131.099 28.6298H129.339V16.7898H131.099V28.6298ZM135.959 22.3418C135.607 22.3418 135.33 22.4112 135.127 22.5498C134.935 22.6778 134.839 22.8645 134.839 23.1098C134.839 23.2698 134.893 23.4192 134.999 23.5578C135.117 23.6858 135.357 23.7925 135.719 23.8778L136.855 24.1338C137.303 24.2298 137.661 24.3685 137.927 24.5498C138.205 24.7312 138.418 24.9285 138.567 25.1418C138.727 25.3552 138.834 25.5738 138.887 25.7978C138.941 26.0218 138.967 26.2298 138.967 26.4218C138.967 26.7632 138.898 27.0832 138.759 27.3818C138.621 27.6698 138.423 27.9205 138.167 28.1338C137.911 28.3472 137.602 28.5125 137.239 28.6298C136.877 28.7578 136.471 28.8218 136.023 28.8218C135.458 28.8218 134.935 28.7418 134.455 28.5818C133.975 28.4112 133.591 28.2245 133.303 28.0218L133.719 26.5018C134.082 26.8538 134.487 27.1152 134.935 27.2858C135.394 27.4565 135.815 27.5418 136.199 27.5418C136.605 27.5418 136.914 27.4565 137.127 27.2858C137.341 27.1045 137.447 26.8592 137.447 26.5498C137.447 26.3685 137.394 26.2192 137.287 26.1018C137.181 25.9738 136.967 25.8672 136.647 25.7818L135.111 25.3978C134.749 25.3125 134.45 25.1898 134.215 25.0298C133.991 24.8698 133.81 24.6938 133.671 24.5018C133.543 24.2992 133.453 24.0912 133.399 23.8778C133.357 23.6645 133.335 23.4618 133.335 23.2698C133.335 22.5552 133.586 22.0058 134.087 21.6218C134.589 21.2272 135.239 21.0298 136.039 21.0298C136.455 21.0298 136.903 21.0885 137.383 21.2058C137.863 21.3125 138.269 21.4725 138.599 21.6858L138.135 23.1258C137.922 22.9552 137.623 22.7845 137.239 22.6138C136.855 22.4325 136.429 22.3418 135.959 22.3418ZM140.753 27.6858C140.753 27.5365 140.78 27.3925 140.833 27.2538C140.897 27.1152 140.983 26.9925 141.089 26.8858C141.196 26.7685 141.313 26.6778 141.441 26.6138C141.58 26.5498 141.729 26.5178 141.889 26.5178C142.039 26.5178 142.183 26.5498 142.321 26.6138C142.46 26.6778 142.583 26.7685 142.689 26.8858C142.807 26.9925 142.897 27.1152 142.961 27.2538C143.025 27.3925 143.057 27.5365 143.057 27.6858C143.057 27.8458 143.025 27.9952 142.961 28.1338C142.897 28.2618 142.807 28.3792 142.689 28.4858C142.583 28.5925 142.46 28.6725 142.321 28.7258C142.183 28.7898 142.039 28.8218 141.889 28.8218C141.58 28.8218 141.313 28.7098 141.089 28.4858C140.865 28.2618 140.753 27.9952 140.753 27.6858ZM145.151 27.6858C145.151 27.5365 145.178 27.3925 145.231 27.2538C145.295 27.1152 145.381 26.9925 145.487 26.8858C145.594 26.7685 145.711 26.6778 145.839 26.6138C145.978 26.5498 146.127 26.5178 146.287 26.5178C146.437 26.5178 146.581 26.5498 146.719 26.6138C146.858 26.6778 146.981 26.7685 147.087 26.8858C147.205 26.9925 147.295 27.1152 147.359 27.2538C147.423 27.3925 147.455 27.5365 147.455 27.6858C147.455 27.8458 147.423 27.9952 147.359 28.1338C147.295 28.2618 147.205 28.3792 147.087 28.4858C146.981 28.5925 146.858 28.6725 146.719 28.7258C146.581 28.7898 146.437 28.8218 146.287 28.8218C145.978 28.8218 145.711 28.7098 145.487 28.4858C145.263 28.2618 145.151 27.9952 145.151 27.6858ZM149.55 27.6858C149.55 27.5365 149.576 27.3925 149.63 27.2538C149.694 27.1152 149.779 26.9925 149.886 26.8858C149.992 26.7685 150.11 26.6778 150.238 26.6138C150.376 26.5498 150.526 26.5178 150.686 26.5178C150.835 26.5178 150.979 26.5498 151.118 26.6138C151.256 26.6778 151.379 26.7685 151.486 26.8858C151.603 26.9925 151.694 27.1152 151.758 27.2538C151.822 27.3925 151.854 27.5365 151.854 27.6858C151.854 27.8458 151.822 27.9952 151.758 28.1338C151.694 28.2618 151.603 28.3792 151.486 28.4858C151.379 28.5925 151.256 28.6725 151.118 28.7258C150.979 28.7898 150.835 28.8218 150.686 28.8218C150.376 28.8218 150.11 28.7098 149.886 28.4858C149.662 28.2618 149.55 27.9952 149.55 27.6858Z" fill="white"/>
<defs>
<linearGradient id="paint0_linear" x1="151.5" y1="-4.38598" x2="78.2835" y2="95.7339" gradientUnits="userSpaceOnUse">
<stop stop-color="#2273EB"/>
<stop offset="1" stop-color="white" stop-opacity="0"/>
</linearGradient>
</defs>
</svg>
